<mxfile host="drawio-plugin" modified="2024-07-18T11:37:50.524Z" agent="5.0 (X11; Linux x86_64) AppleWebKit/537.36 (KHTML, like Gecko) Chrome/104.0.5112.102 Safari/537.36" etag="kd9wGV68QKqYxmqh7Db3" version="20.5.3" type="embed"><diagram id="BAHB0gP8xIXMOgwT9xjf" name="MITE"><mxGraphModel dx="749" dy="481" grid="1" gridSize="10" guides="1" tooltips="1" connect="1" arrows="1" fold="1" page="1" pageScale="1" pageWidth="850" pageHeight="1100" math="0" shadow="0"><root><mxCell id="0"/><mxCell id="1" parent="0"/><mxCell id="RC-lDWm2Dxlrm_hdWZar-4" style="edgeStyle=orthogonalEdgeStyle;rounded=0;orthogonalLoop=1;jettySize=auto;html=1;entryX=0;entryY=0.25;entryDx=0;entryDy=0;exitX=0.5;exitY=0;exitDx=0;exitDy=0;" parent="1" source="-aiOxaH1s1cK_LicX6S7-1" target="KzYSrZ77MdClX3Mj8RqD-2" edge="1"><mxGeometry relative="1" as="geometry"><mxPoint x="235" y="370" as="targetPoint"/></mxGeometry></mxCell><mxCell id="-aiOxaH1s1cK_LicX6S7-1" value="Entry" style="swimlane;childLayout=stackLayout;horizontal=1;startSize=50;horizontalStack=0;rounded=1;fontSize=14;fontStyle=0;strokeWidth=2;resizeParent=0;resizeLast=1;shadow=0;dashed=0;align=center;arcSize=4;whiteSpace=wrap;html=1;" parent="1" vertex="1"><mxGeometry x="110" y="670" width="250" height="200" as="geometry"/></mxCell><mxCell id="-aiOxaH1s1cK_LicX6S7-2" value="&lt;div&gt;&lt;span style=&quot;background-color: initial;&quot;&gt;+ accession: str&lt;/span&gt;&lt;br&gt;&lt;/div&gt;&lt;div&gt;+ quality: str&lt;br&gt;&lt;/div&gt;+ status: str&lt;br&gt;+ retirementReasons: array[str]&lt;br&gt;+ changelog: MIBiG commons&lt;br&gt;&lt;div&gt;+ enzyme: Enzyme&lt;/div&gt;&lt;div&gt;+ reactions: array[Reactions]&lt;br&gt;&lt;/div&gt;+ comments: str" style="align=left;strokeColor=none;fillColor=none;spacingLeft=4;fontSize=12;verticalAlign=top;resizable=0;rotatable=0;part=1;html=1;" parent="-aiOxaH1s1cK_LicX6S7-1" vertex="1"><mxGeometry y="50" width="250" height="150" as="geometry"/></mxCell><mxCell id="KzYSrZ77MdClX3Mj8RqD-1" value="Enzyme" style="swimlane;childLayout=stackLayout;horizontal=1;startSize=50;horizontalStack=0;rounded=1;fontSize=14;fontStyle=0;strokeWidth=2;resizeParent=0;resizeLast=1;shadow=0;dashed=0;align=center;arcSize=4;whiteSpace=wrap;html=1;" parent="1" vertex="1"><mxGeometry x="390" y="577" width="250" height="150" as="geometry"/></mxCell><mxCell id="KzYSrZ77MdClX3Mj8RqD-2" value="&lt;div&gt;+ name: str&lt;/div&gt;&lt;div&gt;+ description: str&lt;/div&gt;&lt;div&gt;+ databaseIds: array[str]&lt;/div&gt;&lt;div&gt;+ auxiliaryEnzymes: object&lt;/div&gt;&lt;div&gt;+ references: MIBiG commons&lt;/div&gt;&lt;div&gt;&lt;br&gt;&lt;/div&gt;&lt;div&gt;&lt;br&gt;&lt;/div&gt;" style="align=left;strokeColor=none;fillColor=none;spacingLeft=4;fontSize=12;verticalAlign=top;resizable=0;rotatable=0;part=1;html=1;" parent="KzYSrZ77MdClX3Mj8RqD-1" vertex="1"><mxGeometry y="50" width="250" height="100" as="geometry"/></mxCell><mxCell id="RC-lDWm2Dxlrm_hdWZar-11" value="Reactions" style="swimlane;childLayout=stackLayout;horizontal=1;startSize=50;horizontalStack=0;rounded=1;fontSize=14;fontStyle=0;strokeWidth=2;resizeParent=0;resizeLast=1;shadow=0;dashed=0;align=center;arcSize=4;whiteSpace=wrap;html=1;" parent="1" vertex="1"><mxGeometry x="390" y="770" width="250" height="130" as="geometry"/></mxCell><mxCell id="RC-lDWm2Dxlrm_hdWZar-12" value="&lt;div&gt;+ tailoring: array[str]&lt;/div&gt;&lt;div&gt;+ description: str&lt;/div&gt;&lt;div&gt;+ reactionSMARTS: object&lt;/div&gt;&lt;div&gt;+ reactions: array[object]&lt;/div&gt;" style="align=left;strokeColor=none;fillColor=none;spacingLeft=4;fontSize=12;verticalAlign=top;resizable=0;rotatable=0;part=1;html=1;" parent="RC-lDWm2Dxlrm_hdWZar-11" vertex="1"><mxGeometry y="50" width="250" height="80" as="geometry"/></mxCell><mxCell id="RC-lDWm2Dxlrm_hdWZar-14" style="edgeStyle=orthogonalEdgeStyle;rounded=0;orthogonalLoop=1;jettySize=auto;html=1;entryX=0;entryY=0.5;entryDx=0;entryDy=0;" parent="1" source="-aiOxaH1s1cK_LicX6S7-2" target="RC-lDWm2Dxlrm_hdWZar-12" edge="1"><mxGeometry relative="1" as="geometry"><Array as="points"><mxPoint x="235" y="920"/><mxPoint x="370" y="920"/><mxPoint x="370" y="889"/></Array></mxGeometry></mxCell></root></mxGraphModel></diagram></mxfile>